<svg width="934" height="1018" viewBox="0 0 934 1018" fill="none" xmlns="http://www.w3.org/2000/svg">
<mask id="path-1-outside-1_274_2517" maskUnits="userSpaceOnUse" x="262.55" y="338.928" width="672" height="485" fill="black">
<rect fill="white" x="262.55" y="338.928" width="672" height="485"/>
<path fill-rule="evenodd" clip-rule="evenodd" d="M368.724 443.158L357.341 438.744C334.426 429.857 323.053 404.076 331.94 381.16C340.828 358.244 366.609 346.872 389.524 355.759L401.926 360.569C413.277 343.69 435.17 336.287 454.931 343.951C474.693 351.615 485.87 371.842 482.873 391.961L484.91 392.752C496.262 375.873 518.154 368.471 537.916 376.135C557.677 383.798 568.854 404.026 565.858 424.144L567.244 424.682C567.461 424.766 567.677 424.852 567.892 424.939C579.243 408.058 601.137 400.654 620.9 408.318C643.782 417.192 655.154 442.91 646.34 465.8C655.264 442.953 681.003 431.628 703.884 440.502C723.645 448.165 734.822 468.391 731.827 488.508L733.865 489.299C745.216 472.421 767.108 465.02 786.869 472.684C806.629 480.347 817.807 500.573 814.811 520.691L816.849 521.482C828.201 504.605 850.093 497.204 869.853 504.867C889.614 512.531 900.791 532.756 897.796 552.874L904.325 555.406C927.24 564.293 938.613 590.075 929.726 612.99C920.839 635.906 895.057 647.278 872.142 638.391L866.632 636.254L866.631 636.256L872.141 638.393C895.057 647.28 906.429 673.061 897.542 695.977C888.655 718.892 862.874 730.265 839.958 721.377L834.448 719.241L834.448 719.242L839.958 721.379C862.873 730.266 874.246 756.047 865.358 778.963C856.471 801.878 830.69 813.251 807.775 804.364L801.404 801.893C790.187 819.246 767.978 826.946 747.956 819.181C727.935 811.417 716.725 790.756 720.14 770.378L718.42 769.71C707.202 787.062 684.993 794.762 664.972 786.998C644.951 779.233 633.741 758.573 637.156 738.195L635.436 737.528C624.218 754.88 602.009 762.581 581.988 754.816C559.106 745.942 547.734 720.225 556.547 697.335C547.623 720.181 521.885 731.506 499.003 722.633C478.981 714.868 467.771 694.205 471.188 673.826C471.023 673.764 470.858 673.701 470.694 673.638L469.466 673.162C458.249 690.513 436.04 698.214 416.019 690.449C395.998 682.685 384.788 662.024 388.202 641.646L386.482 640.979C375.264 658.33 353.055 666.03 333.035 658.265C313.014 650.501 301.804 629.841 305.218 609.463L292.974 604.715C270.059 595.828 258.686 570.046 267.573 547.131C276.447 524.249 302.166 512.876 325.057 521.691C302.209 512.767 290.883 487.028 299.757 464.146C308.644 441.231 334.425 429.858 357.341 438.745L368.723 443.16L368.724 443.158Z"/>
</mask>
<path fill-rule="evenodd" clip-rule="evenodd" d="M368.724 443.158L357.341 438.744C334.426 429.857 323.053 404.076 331.94 381.16C340.828 358.244 366.609 346.872 389.524 355.759L401.926 360.569C413.277 343.69 435.17 336.287 454.931 343.951C474.693 351.615 485.87 371.842 482.873 391.961L484.91 392.752C496.262 375.873 518.154 368.471 537.916 376.135C557.677 383.798 568.854 404.026 565.858 424.144L567.244 424.682C567.461 424.766 567.677 424.852 567.892 424.939C579.243 408.058 601.137 400.654 620.9 408.318C643.782 417.192 655.154 442.91 646.34 465.8C655.264 442.953 681.003 431.628 703.884 440.502C723.645 448.165 734.822 468.391 731.827 488.508L733.865 489.299C745.216 472.421 767.108 465.02 786.869 472.684C806.629 480.347 817.807 500.573 814.811 520.691L816.849 521.482C828.201 504.605 850.093 497.204 869.853 504.867C889.614 512.531 900.791 532.756 897.796 552.874L904.325 555.406C927.24 564.293 938.613 590.075 929.726 612.99C920.839 635.906 895.057 647.278 872.142 638.391L866.632 636.254L866.631 636.256L872.141 638.393C895.057 647.28 906.429 673.061 897.542 695.977C888.655 718.892 862.874 730.265 839.958 721.377L834.448 719.241L834.448 719.242L839.958 721.379C862.873 730.266 874.246 756.047 865.358 778.963C856.471 801.878 830.69 813.251 807.775 804.364L801.404 801.893C790.187 819.246 767.978 826.946 747.956 819.181C727.935 811.417 716.725 790.756 720.14 770.378L718.42 769.71C707.202 787.062 684.993 794.762 664.972 786.998C644.951 779.233 633.741 758.573 637.156 738.195L635.436 737.528C624.218 754.88 602.009 762.581 581.988 754.816C559.106 745.942 547.734 720.225 556.547 697.335C547.623 720.181 521.885 731.506 499.003 722.633C478.981 714.868 467.771 694.205 471.188 673.826C471.023 673.764 470.858 673.701 470.694 673.638L469.466 673.162C458.249 690.513 436.04 698.214 416.019 690.449C395.998 682.685 384.788 662.024 388.202 641.646L386.482 640.979C375.264 658.33 353.055 666.03 333.035 658.265C313.014 650.501 301.804 629.841 305.218 609.463L292.974 604.715C270.059 595.828 258.686 570.046 267.573 547.131C276.447 524.249 302.166 512.876 325.057 521.691C302.209 512.767 290.883 487.028 299.757 464.146C308.644 441.231 334.425 429.858 357.341 438.745L368.723 443.16L368.724 443.158Z" fill="#FF6F00"/>
<path d="M357.341 438.744L356.98 439.676L357.341 438.744ZM368.724 443.158L369.657 443.518L370.016 442.587L369.085 442.226L368.724 443.158ZM389.524 355.759L389.886 354.827L389.524 355.759ZM401.926 360.569L401.564 361.501L402.309 361.79L402.755 361.127L401.926 360.569ZM454.931 343.951L454.57 344.883L454.931 343.951ZM482.873 391.961L481.884 391.814L481.766 392.605L482.512 392.894L482.873 391.961ZM484.91 392.752L484.549 393.684L485.294 393.973L485.74 393.31L484.91 392.752ZM537.916 376.135L538.277 375.202L537.916 376.135ZM565.858 424.144L564.869 423.997L564.751 424.788L565.496 425.077L565.858 424.144ZM567.244 424.682L566.883 425.614L567.244 424.682ZM567.892 424.939L567.516 425.866L568.269 426.171L568.722 425.497L567.892 424.939ZM620.9 408.318L620.538 409.251L620.9 408.318ZM646.34 465.8L645.407 465.441L647.272 466.164L646.34 465.8ZM703.884 440.502L703.523 441.434L703.884 440.502ZM731.827 488.508L730.838 488.361L730.72 489.152L731.465 489.441L731.827 488.508ZM733.865 489.299L733.503 490.231L734.248 490.52L734.694 489.857L733.865 489.299ZM786.869 472.684L787.23 471.751L786.869 472.684ZM814.811 520.691L813.822 520.544L813.704 521.335L814.449 521.624L814.811 520.691ZM816.849 521.482L816.488 522.414L817.233 522.703L817.679 522.04L816.849 521.482ZM869.853 504.867L870.215 503.935L869.853 504.867ZM897.796 552.874L896.806 552.727L896.689 553.517L897.434 553.806L897.796 552.874ZM904.325 555.406L904.686 554.474L904.325 555.406ZM929.726 612.99L930.658 613.352L929.726 612.99ZM872.142 638.391L871.78 639.323L872.142 638.391ZM866.632 636.254L866.993 635.322L866.084 634.969L865.709 635.87L866.632 636.254ZM866.631 636.256L865.708 635.871L865.314 636.817L866.27 637.188L866.631 636.256ZM872.141 638.393L872.503 637.46L872.141 638.393ZM897.542 695.977L898.474 696.338L897.542 695.977ZM839.958 721.377L839.597 722.31L839.958 721.377ZM834.448 719.241L834.81 718.308L833.867 717.943L833.512 718.889L834.448 719.241ZM834.448 719.242L833.511 718.891L833.164 719.817L834.086 720.174L834.448 719.242ZM839.958 721.379L840.319 720.447L839.958 721.379ZM865.358 778.963L866.291 779.324L865.358 778.963ZM807.775 804.364L808.136 803.431L807.775 804.364ZM801.404 801.893L801.766 800.961L801.007 800.667L800.565 801.35L801.404 801.893ZM747.956 819.181L748.318 818.249L747.956 819.181ZM720.14 770.378L721.126 770.543L721.261 769.74L720.502 769.445L720.14 770.378ZM718.42 769.71L718.781 768.778L718.022 768.484L717.58 769.167L718.42 769.71ZM664.972 786.998L664.61 787.93L664.972 786.998ZM637.156 738.195L638.142 738.36L638.276 737.557L637.517 737.262L637.156 738.195ZM635.436 737.528L635.797 736.595L635.038 736.301L634.596 736.985L635.436 737.528ZM581.988 754.816L581.626 755.749L581.988 754.816ZM556.547 697.335L557.48 697.694L555.616 696.971L556.547 697.335ZM499.003 722.633L498.642 723.565L499.003 722.633ZM471.188 673.826L472.174 673.991L472.31 673.178L471.538 672.889L471.188 673.826ZM470.694 673.638L470.332 674.57L470.333 674.57L470.694 673.638ZM469.466 673.162L469.828 672.229L469.069 671.935L468.627 672.619L469.466 673.162ZM416.019 690.449L415.657 691.381L416.019 690.449ZM388.202 641.646L389.189 641.811L389.323 641.008L388.564 640.714L388.202 641.646ZM386.482 640.979L386.843 640.046L386.084 639.752L385.642 640.436L386.482 640.979ZM333.035 658.265L332.673 659.198L333.035 658.265ZM305.218 609.463L306.204 609.628L306.339 608.825L305.58 608.531L305.218 609.463ZM292.974 604.715L293.336 603.782H293.336L292.974 604.715ZM267.573 547.131L266.641 546.769L267.573 547.131ZM325.057 521.691L324.697 522.624L325.421 520.76L325.057 521.691ZM299.757 464.146L300.689 464.508L299.757 464.146ZM357.341 438.745L357.702 437.813L357.341 438.745ZM368.723 443.16L368.362 444.092L369.296 444.455L369.656 443.519L368.723 443.16ZM356.98 439.676L368.362 444.091L369.085 442.226L357.703 437.812L356.98 439.676ZM331.008 380.799C321.921 404.229 333.549 430.59 356.98 439.676L357.703 437.812C335.302 429.124 324.185 403.922 332.873 381.522L331.008 380.799ZM389.886 354.827C366.455 345.74 340.095 357.368 331.008 380.799L332.873 381.522C341.56 359.121 366.762 348.004 389.163 356.691L389.886 354.827ZM402.287 359.636L389.886 354.827L389.163 356.691L401.564 361.501L402.287 359.636ZM455.293 343.019C435.086 335.182 412.702 342.752 401.096 360.01L402.755 361.127C413.852 344.627 435.253 337.392 454.57 344.883L455.293 343.019ZM483.862 392.109C486.927 371.538 475.5 350.855 455.293 343.019L454.57 344.883C473.886 352.375 484.814 372.147 481.884 391.814L483.862 392.109ZM485.272 391.819L483.235 391.029L482.512 392.894L484.549 393.684L485.272 391.819ZM538.277 375.202C518.071 367.366 495.687 374.936 484.081 392.193L485.74 393.31C496.837 376.81 518.238 369.576 537.554 377.067L538.277 375.202ZM566.847 424.292C569.911 403.721 558.484 383.039 538.277 375.202L537.554 377.067C556.87 384.558 567.798 404.33 564.869 423.997L566.847 424.292ZM567.606 423.75L566.219 423.212L565.496 425.077L566.883 425.614L567.606 423.75ZM568.268 424.012C568.048 423.923 567.828 423.836 567.606 423.75L566.883 425.614C567.095 425.697 567.306 425.78 567.516 425.866L568.268 424.012ZM621.262 407.386C601.053 399.549 578.668 407.12 567.062 424.381L568.722 425.497C579.818 408.995 601.221 401.759 620.538 409.251L621.262 407.386ZM647.274 466.16C656.286 442.755 644.657 416.459 621.262 407.386L620.538 409.251C642.906 417.925 654.023 443.065 645.407 465.441L647.274 466.16ZM704.246 439.57C680.85 430.496 654.534 442.076 645.409 465.436L647.272 466.164C655.995 443.83 681.156 432.76 703.523 441.434L704.246 439.57ZM732.816 488.656C735.878 468.086 724.451 447.406 704.246 439.57L703.523 441.434C722.838 448.925 733.765 468.696 730.838 488.361L732.816 488.656ZM734.226 488.366L732.188 487.576L731.465 489.441L733.503 490.231L734.226 488.366ZM787.23 471.751C767.024 463.915 744.642 471.484 733.035 488.741L734.694 489.857C745.791 473.359 767.192 466.125 786.507 473.616L787.23 471.751ZM815.8 520.838C818.863 500.268 807.436 479.587 787.23 471.751L786.507 473.616C805.823 481.107 816.75 500.878 813.822 520.544L815.8 520.838ZM817.211 520.549L815.173 519.759L814.449 521.624L816.488 522.414L817.211 520.549ZM817.679 522.04C828.776 505.542 850.176 498.309 869.492 505.799L870.215 503.935C850.009 496.099 827.627 503.667 816.02 520.924L817.679 522.04ZM869.492 505.799C888.807 513.29 899.734 533.061 896.806 552.727L898.785 553.021C901.847 532.451 890.42 511.771 870.215 503.935L869.492 505.799ZM904.686 554.474L898.157 551.942L897.434 553.806L903.963 556.339L904.686 554.474ZM930.658 613.352C939.745 589.921 928.117 563.561 904.686 554.474L903.963 556.339C926.364 565.026 937.481 590.228 928.793 612.629L930.658 613.352ZM871.78 639.323C895.211 648.41 921.571 636.782 930.658 613.352L928.793 612.629C920.106 635.029 894.904 646.146 872.503 637.459L871.78 639.323ZM866.27 637.187L871.78 639.323L872.503 637.459L866.993 635.322L866.27 637.187ZM865.709 635.87L865.708 635.871L867.554 636.64L867.555 636.639L865.709 635.87ZM872.503 637.46L866.993 635.323L866.27 637.188L871.78 639.325L872.503 637.46ZM898.474 696.338C907.561 672.908 895.933 646.547 872.503 637.46L871.78 639.325C894.18 648.012 905.297 673.214 896.61 695.615L898.474 696.338ZM839.597 722.31C863.027 731.397 889.388 719.769 898.474 696.338L896.61 695.615C887.922 718.016 862.72 729.132 840.32 720.445L839.597 722.31ZM834.087 720.173L839.597 722.31L840.32 720.445L834.81 718.308L834.087 720.173ZM833.512 718.889L833.511 718.891L835.384 719.593L835.385 719.592L833.512 718.889ZM840.319 720.447L834.809 718.31L834.086 720.174L839.596 722.311L840.319 720.447ZM866.291 779.324C875.378 755.894 863.75 729.533 840.319 720.447L839.596 722.311C861.997 730.999 873.114 756.201 864.426 778.601L866.291 779.324ZM807.413 805.296C830.844 814.383 857.204 802.755 866.291 779.324L864.426 778.601C855.739 801.002 830.537 812.119 808.136 803.431L807.413 805.296ZM801.043 802.826L807.413 805.296L808.136 803.431L801.766 800.961L801.043 802.826ZM800.565 801.35C789.599 818.313 767.888 825.839 748.318 818.249L747.595 820.114C768.067 828.053 790.774 820.179 802.244 802.436L800.565 801.35ZM748.318 818.249C728.748 810.659 717.788 790.463 721.126 770.543L719.154 770.212C715.662 791.049 727.122 812.174 747.595 820.114L748.318 818.249ZM718.058 770.643L719.779 771.31L720.502 769.445L718.781 768.778L718.058 770.643ZM664.61 787.93C685.083 795.87 707.789 787.995 719.259 770.253L717.58 769.167C706.614 786.129 684.904 793.655 665.334 786.066L664.61 787.93ZM636.169 738.029C632.678 758.866 644.138 779.991 664.61 787.93L665.334 786.066C645.763 778.476 634.804 758.28 638.142 738.36L636.169 738.029ZM635.074 738.46L636.794 739.127L637.517 737.262L635.797 736.595L635.074 738.46ZM581.626 755.749C602.099 763.688 624.806 755.814 636.276 738.071L634.596 736.985C623.631 753.947 601.92 761.474 582.349 753.884L581.626 755.749ZM555.614 696.976C546.602 720.38 558.23 746.675 581.626 755.749L582.349 753.884C559.982 745.209 548.865 720.07 557.48 697.694L555.614 696.976ZM498.642 723.565C522.037 732.638 548.354 721.059 557.479 697.699L555.616 696.971C546.892 719.304 521.732 730.375 499.365 721.7L498.642 723.565ZM470.201 673.66C466.708 694.498 478.168 715.625 498.642 723.565L499.365 721.7C479.793 714.11 468.834 693.912 472.174 673.991L470.201 673.66ZM470.333 674.57C470.5 674.635 470.668 674.699 470.837 674.762L471.538 672.889C471.377 672.829 471.216 672.768 471.056 672.705L470.333 674.57ZM469.105 674.094L470.332 674.57L471.056 672.705L469.828 672.229L469.105 674.094ZM415.657 691.381C436.129 699.321 458.836 691.447 470.306 673.704L468.627 672.619C457.661 689.58 435.951 697.106 416.38 689.517L415.657 691.381ZM387.216 641.481C383.725 662.317 395.185 683.442 415.657 691.381L416.38 689.517C396.81 681.927 385.851 661.731 389.189 641.811L387.216 641.481ZM386.12 641.911L387.841 642.578L388.564 640.714L386.843 640.046L386.12 641.911ZM332.673 659.198C353.145 667.137 375.851 659.263 387.321 641.522L385.642 640.436C374.676 657.397 352.966 664.923 333.396 657.333L332.673 659.198ZM304.232 609.298C300.741 630.134 312.201 651.258 332.673 659.198L333.396 657.333C313.826 649.744 302.867 629.548 306.204 609.628L304.232 609.298ZM292.613 605.647L304.856 610.395L305.58 608.531L293.336 603.782L292.613 605.647ZM266.641 546.769C257.554 570.2 269.182 596.56 292.613 605.647L293.336 603.782C270.935 595.095 259.818 569.893 268.506 547.492L266.641 546.769ZM325.416 520.758C302.011 511.745 275.714 523.373 266.641 546.769L268.506 547.492C277.18 525.124 302.321 514.007 324.697 522.624L325.416 520.758ZM298.825 463.785C289.751 487.181 301.332 513.498 324.693 522.623L325.421 520.76C303.086 512.037 292.015 486.876 300.689 464.508L298.825 463.785ZM357.702 437.813C334.272 428.726 307.911 440.354 298.825 463.785L300.689 464.508C309.377 442.107 334.579 430.99 356.979 439.678L357.702 437.813ZM369.085 442.227L357.702 437.813L356.979 439.678L368.362 444.092L369.085 442.227ZM367.791 442.799L367.79 442.8L369.656 443.519L369.657 443.518L367.791 442.799Z" fill="black" mask="url(#path-1-outside-1_274_2517)"/>
<g filter="url(#filter0_diiii_274_2517)">
<path d="M245.059 262.46C259.231 266.763 272.781 265.691 285.385 259.142C297.989 252.594 306.656 242.122 311.069 228.164C315.483 214.205 314.197 200.765 307.649 188.161C301.1 175.557 290.842 166.78 276.884 162.366C262.925 157.953 249.375 159.025 236.771 165.574C224.167 172.122 215.5 182.593 210.873 196.663C206.246 210.733 207.318 224.283 213.866 236.887C220.415 249.491 230.886 258.158 245.059 262.46ZM28.6541 326.334C71.313 348.391 115.602 350.611 153.414 330.965C170.718 321.975 181.837 309.958 186.986 294.803C191.809 279.546 190.721 264.919 183.506 251.033C177.069 238.643 167.033 230.293 153.399 225.982C139.765 221.671 126.539 222.846 113.935 229.394C101.758 235.721 93.8183 244.458 90.2261 255.82C86.5229 266.968 87.3393 277.938 92.889 288.619C95.1088 292.892 97.7475 296.404 100.694 298.943C91.3471 300.272 80.2408 299.26 67.6916 295.471C55.0315 291.469 45.0542 286.886 37.9651 281.074L28.6541 326.334Z" fill="black"/>
<path d="M27.6746 326.133L27.522 326.875L28.1948 327.222C71.0849 349.399 115.722 351.676 153.875 331.852C171.356 322.77 182.684 310.573 187.932 295.125L187.936 295.115L187.939 295.105C192.839 279.606 191.736 264.704 184.394 250.572C177.831 237.94 167.58 229.417 153.7 225.028C139.813 220.638 126.313 221.836 113.474 228.507C101.11 234.931 92.9623 243.855 89.2749 255.511C85.489 266.914 86.3285 278.162 92.0016 289.081C93.8646 292.666 96.0313 295.755 98.4489 298.209C89.7232 299.093 79.4904 297.989 67.9857 294.515C55.3765 290.528 45.5424 285.993 38.5991 280.3L37.3191 279.251L36.9856 280.872L27.6746 326.133ZM244.768 263.417C259.175 267.791 272.997 266.706 285.846 260.03C298.695 253.354 307.533 242.667 312.023 228.465C316.517 214.252 315.206 200.538 308.536 187.7C301.866 174.863 291.399 165.907 277.185 161.413C262.983 156.923 249.158 158.011 236.31 164.686C223.46 171.362 214.627 182.048 209.923 196.351C205.214 210.669 206.303 224.499 212.979 237.348C219.655 250.198 230.346 259.039 244.768 263.417Z" stroke="black" stroke-width="2"/>
</g>
<g filter="url(#filter1_diiii_274_2517)">
<path d="M266.319 582.283L338.187 532.417L336.973 619.415L382.289 618.164L374.879 531.481L449.491 575.793L470.97 534.93L391.948 498.52L467.925 455.171L443.53 416.479L371.662 466.345L372.875 379.347L327.001 381.518L334.562 467.537L259.799 423.889L238.878 463.831L317.9 500.241L241.923 543.591L266.319 582.283Z" fill="black"/>
<path d="M265.473 582.816L266.03 583.7L266.889 583.104L337.16 534.347L335.973 619.401L335.958 620.443L337.001 620.414L382.317 619.164L383.376 619.135L383.285 618.079L376.041 533.334L448.981 576.653L449.886 577.191L450.376 576.259L471.855 535.395L472.345 534.463L471.388 534.022L394.132 498.426L468.42 456.039L469.328 455.522L468.771 454.637L444.376 415.945L443.818 415.061L442.96 415.657L372.689 464.415L373.875 379.361L373.89 378.298L372.828 378.348L326.954 380.519L325.914 380.569L326.005 381.606L333.397 465.699L260.304 423.025L259.399 422.497L258.913 423.425L237.993 463.367L237.504 464.299L238.46 464.74L315.716 500.336L241.428 542.722L240.52 543.24L241.077 544.124L265.473 582.816Z" stroke="black" stroke-width="2"/>
</g>
<g filter="url(#filter2_diiii_274_2517)">
<path d="M555.468 571.736L645.397 378.012L505.923 329.063L454.61 536.34L555.468 571.736ZM458.414 686.163C478.858 693.338 496.9 693.547 512.459 687.016C528.018 680.485 538.787 668.701 544.606 652.119C550.426 635.536 549.383 619.607 541.397 604.558C533.185 589.429 518.97 578.317 498.753 571.222C478.536 564.127 460.722 563.998 445.083 570.756C429.444 577.514 418.675 589.298 412.855 605.88C407.036 622.463 408.079 638.392 416.144 653.214C424.209 668.036 438.197 679.068 458.414 686.163Z" fill="black"/>
<path d="M555.137 572.679L555.993 572.98L556.375 572.157L646.304 378.433L646.768 377.433L645.728 377.068L506.254 328.12L505.216 327.755L504.952 328.823L453.639 536.099L453.421 536.982L454.279 537.283L555.137 572.679ZM542.281 604.089L542.276 604.081C533.918 588.684 519.475 577.435 499.084 570.278C478.692 563.122 460.61 562.957 444.686 569.838C428.78 576.712 417.82 588.715 411.912 605.549C406.004 622.382 407.057 638.607 415.266 653.692C423.476 668.781 437.691 679.951 458.083 687.107C478.697 694.342 497.003 694.588 512.846 687.938C528.681 681.291 539.643 669.282 545.55 652.45C551.458 635.616 550.403 619.395 542.281 604.089Z" stroke="black" stroke-width="2"/>
</g>
<g filter="url(#filter3_diiii_274_2517)">
<path d="M111.99 421.697L475.153 364.589L446.739 309.9L83.5757 367.009L111.99 421.697Z" fill="black"/>
<path d="M111.102 422.158L111.434 422.797L112.145 422.685L475.309 365.577L476.681 365.361L476.041 364.128L447.627 309.439L447.295 308.801L446.584 308.912L83.4204 366.021L82.0477 366.236L82.6883 367.47L111.102 422.158Z" stroke="black" stroke-width="2"/>
</g>
<g filter="url(#filter4_diiii_274_2517)">
<path d="M610.811 605.227C620.407 615.369 632.352 620.638 646.646 621.033C660.94 621.429 673.333 616.663 683.65 606.901C693.443 597.635 698.674 587.051 699.169 575.315C699.499 563.403 695.697 553.08 687.424 544.337C683.619 540.315 680.116 537.664 677.091 536.218C685.712 532.369 696.668 530.288 709.941 530.655C723.214 531.022 734.067 532.685 742.481 536.323L738.822 490.072C691.742 480.596 648.55 490.641 617.598 519.927C603.433 533.329 596.047 547.94 595.604 563.935C594.822 579.921 599.89 593.685 610.811 605.227ZM694.532 693.711C704.128 703.854 716.074 709.123 730.367 709.518C744.661 709.913 757.054 705.147 767.371 695.385C777.164 686.12 782.396 675.536 782.725 663.625C783.054 651.713 779.253 641.39 770.98 632.647C767.34 628.8 763.837 626.148 760.812 624.702C769.433 620.854 780.389 618.773 793.662 619.14C806.935 619.507 817.788 621.169 826.202 624.808L822.543 578.557C775.463 569.081 732.271 579.125 701.319 608.411C687.154 621.813 679.768 636.425 679.326 652.42C678.543 668.406 683.612 682.17 694.532 693.711Z" fill="black"/>
<path d="M700.168 575.357L700.169 575.35L700.169 575.342C700.505 563.173 696.611 552.591 688.151 543.65C685.035 540.357 682.088 537.936 679.399 536.327C687.554 533.065 697.723 531.317 709.913 531.655C723.137 532.02 733.841 533.677 742.084 537.241L743.609 537.901L743.478 536.244L739.818 489.994L739.759 489.241L739.019 489.092C691.684 479.564 648.142 489.65 616.91 519.2C602.605 532.735 595.06 547.58 594.605 563.897C593.812 580.148 598.977 594.175 610.084 605.914C619.868 616.254 632.067 621.63 646.618 622.033C661.178 622.436 673.828 617.571 684.337 607.627C694.287 598.213 699.661 587.395 700.168 575.357ZM763.121 624.812C771.275 621.55 781.444 619.802 793.635 620.139C806.858 620.505 817.562 622.161 825.805 625.726L827.33 626.385L827.199 624.729L823.54 578.478L823.48 577.726L822.74 577.577C775.405 568.049 731.863 578.135 700.632 607.685C686.326 621.22 678.781 636.065 678.326 652.382C677.533 668.633 682.699 682.66 693.805 694.399C703.589 704.739 715.788 710.115 730.34 710.518C744.899 710.92 757.549 706.056 768.059 696.112C778.009 686.697 783.387 675.873 783.725 663.652C784.061 651.483 780.167 640.901 771.707 631.959C768.724 628.807 765.803 626.414 763.121 624.812Z" stroke="black" stroke-width="2"/>
</g>
<g filter="url(#filter5_diiii_274_2517)">
<path d="M697.056 838.953L751.353 820.772L751.174 690.855L701.237 690.112L706.546 772.277L703.624 773.255L658.384 704.461L618.963 735.127L697.056 838.953Z" fill="black"/>
<path d="M696.257 839.555L696.69 840.131L697.374 839.902L751.67 821.72L752.354 821.491L752.353 820.77L752.174 690.854L752.173 689.87L751.189 689.855L701.251 689.112L700.169 689.096L700.239 690.176L705.498 771.573L704.037 772.063L659.219 703.912L658.624 703.007L657.77 703.672L618.349 734.338L617.573 734.942L618.164 735.728L696.257 839.555Z" stroke="black" stroke-width="2"/>
</g>
<g filter="url(#filter6_f_274_2517)">
<path d="M286.119 202.399C262.314 185.673 261.298 185.718 223.552 205.167C260.34 185.005 260.579 184.383 238.324 166.834C262.129 183.56 263.144 183.516 300.891 164.067C264.103 184.227 263.862 184.85 286.119 202.399Z" fill="white"/>
<path d="M250.653 177.325C248.542 174.956 245.307 172.252 241.08 168.888C251.193 175.931 257.049 179.441 264.384 179.117C268.376 178.94 272.799 177.628 278.578 175.149C282.989 173.256 288.196 170.681 294.61 167.406C288.444 170.815 283.565 173.6 279.878 176.009C277.452 177.595 275.538 179.019 274.113 180.354C272.688 181.689 271.746 182.939 271.269 184.176C270.31 186.665 271.249 189.058 273.789 191.908C275.9 194.277 279.136 196.981 283.362 200.346C273.249 193.303 267.393 189.792 260.059 190.117C256.067 190.293 251.644 191.605 245.865 194.085C241.453 195.978 236.245 198.553 229.83 201.829C235.997 198.419 240.877 195.633 244.565 193.224C246.991 191.638 248.904 190.214 250.33 188.879C251.754 187.544 252.697 186.294 253.173 185.057C254.132 182.568 253.193 180.175 250.653 177.325Z" stroke="#FFE600" stroke-width="0.201493"/>
</g>
<g filter="url(#filter7_f_274_2517)">
<path d="M514.671 407.153C485.749 404.002 484.881 404.532 461.218 439.79C483.697 404.37 483.606 403.71 455.644 399.09C484.566 402.241 485.434 401.712 509.096 366.454C486.617 401.872 486.707 402.534 514.671 407.153Z" fill="white"/>
<path d="M471.506 402.323C468.514 401.268 464.374 400.462 459.049 399.557C471.306 400.841 478.129 401.087 484.395 397.262C487.805 395.179 491.045 391.895 494.908 386.933C497.857 383.145 501.173 378.376 505.208 372.41C501.456 378.373 498.528 383.168 496.462 387.058C495.103 389.618 494.116 391.789 493.512 393.647C492.909 395.504 492.687 397.053 492.867 398.367C493.229 401.009 495.207 402.652 498.808 403.921C501.8 404.976 505.94 405.782 511.265 406.687C499.009 405.403 492.185 405.157 485.92 408.982C482.509 411.065 479.27 414.349 475.406 419.311C472.457 423.099 469.14 427.87 465.104 433.837C468.858 427.872 471.786 423.076 473.852 419.185C475.211 416.625 476.198 414.454 476.802 412.596C477.405 410.74 477.626 409.19 477.446 407.877C477.084 405.234 475.107 403.592 471.506 402.323Z" stroke="#FFE600" stroke-width="0.201493"/>
</g>
<g filter="url(#filter8_f_274_2517)">
<path d="M465.674 649.399C433.474 626.775 432.1 626.835 381.041 653.143C430.804 625.871 431.127 625.029 401.022 601.292C433.223 623.916 434.597 623.856 485.656 597.548C435.894 624.819 435.568 625.661 465.674 649.399Z" fill="white"/>
<path d="M417.674 615.506C414.673 612.139 409.992 608.27 403.836 603.387C418.096 613.351 426.14 618.318 436.271 617.87C441.665 617.632 447.643 615.859 455.459 612.506C461.878 609.752 469.544 605.929 479.149 601.007C469.871 606.12 462.625 610.221 457.252 613.732C453.97 615.876 451.384 617.802 449.458 619.606C447.533 621.409 446.263 623.096 445.62 624.762C444.33 628.11 445.589 631.333 449.022 635.185C452.023 638.551 456.704 642.421 462.861 647.304C448.6 637.34 440.556 632.373 430.425 632.821C425.031 633.059 419.053 634.832 411.237 638.185C404.817 640.94 397.151 644.763 387.544 649.686C396.824 644.571 404.071 640.469 409.445 636.958C412.726 634.814 415.312 632.888 417.238 631.084C419.163 629.281 420.434 627.594 421.076 625.928C422.366 622.58 421.107 619.357 417.674 615.506Z" stroke="#FFE600" stroke-width="0.201493"/>
</g>
<g filter="url(#filter9_f_274_2517)">
<path d="M768.65 738.682C744.845 721.957 743.83 722.001 706.083 741.45C742.871 721.288 743.111 720.666 720.855 703.118C744.66 719.843 745.675 719.799 783.422 700.35C746.634 720.51 746.393 721.133 768.65 738.682Z" fill="white"/>
<path d="M733.185 713.608C731.073 711.24 727.838 708.535 723.612 705.171C733.724 712.214 739.581 715.724 746.915 715.4C750.907 715.223 755.33 713.912 761.109 711.432C765.52 709.539 770.727 706.964 777.141 703.689C770.976 707.099 766.096 709.883 762.409 712.292C759.983 713.878 758.07 715.302 756.644 716.637C755.22 717.972 754.277 719.222 753.8 720.459C752.841 722.948 753.78 725.341 756.32 728.191C758.431 730.56 761.667 733.265 765.893 736.629C755.781 729.586 749.925 726.076 742.59 726.4C738.598 726.577 734.175 727.888 728.396 730.368C723.984 732.261 718.776 734.837 712.361 738.113C718.528 734.702 723.408 731.916 727.096 729.507C729.522 727.922 731.436 726.497 732.861 725.162C734.286 723.827 735.228 722.577 735.704 721.34C736.664 718.851 735.725 716.458 733.185 713.608Z" stroke="#FFE600" stroke-width="0.201493"/>
</g>
<g filter="url(#filter10_f_274_2517)">
<path d="M215.091 429.417C191.287 412.691 190.271 412.735 152.524 432.184C189.313 412.023 189.552 411.401 167.296 393.852C191.101 410.578 192.117 410.533 229.864 391.085C193.076 411.245 192.835 411.867 215.091 429.417Z" fill="white"/>
<path d="M179.626 404.342C177.515 401.974 174.279 399.269 170.053 395.905C180.166 402.948 186.022 406.459 193.356 406.134C197.348 405.958 201.771 404.646 207.55 402.167C211.962 400.274 217.169 397.699 223.583 394.423C217.417 397.833 212.538 400.618 208.851 403.027C206.424 404.612 204.511 406.037 203.086 407.372C201.661 408.706 200.719 409.956 200.242 411.193C199.283 413.682 200.221 416.076 202.762 418.926C204.873 421.294 208.108 423.999 212.335 427.363C202.222 420.32 196.366 416.81 189.032 417.134C185.04 417.311 180.617 418.623 174.838 421.102C170.425 422.995 165.218 425.571 158.802 428.847C164.969 425.436 169.85 422.651 173.537 420.241C175.964 418.656 177.877 417.231 179.302 415.896C180.727 414.561 181.669 413.311 182.146 412.074C183.105 409.585 182.166 407.192 179.626 404.342Z" stroke="#FFE600" stroke-width="0.201493"/>
</g>
<g filter="url(#filter11_f_274_2517)">
<path d="M758.338 553.715C734.533 536.99 733.517 537.034 695.77 556.483C732.559 536.321 732.798 535.699 710.543 518.151C734.347 534.876 735.363 534.832 773.11 515.383C736.322 535.544 736.081 536.166 758.338 553.715Z" fill="white"/>
<path d="M722.872 528.641C720.761 526.273 717.525 523.568 713.299 520.204C723.412 527.247 729.268 530.757 736.602 530.433C740.594 530.257 745.017 528.945 750.796 526.465C755.208 524.573 760.415 521.997 766.829 518.722C760.663 522.132 755.784 524.917 752.097 527.326C749.671 528.911 747.757 530.336 746.332 531.671C744.907 533.005 743.965 534.255 743.488 535.492C742.529 537.981 743.468 540.375 746.008 543.225C748.119 545.593 751.354 548.298 755.581 551.662C745.468 544.619 739.612 541.109 732.278 541.433C728.286 541.61 723.863 542.922 718.084 545.401C713.672 547.294 708.464 549.87 702.048 553.146C708.215 549.735 713.096 546.95 716.784 544.54C719.21 542.955 721.123 541.53 722.548 540.195C723.973 538.86 724.915 537.61 725.392 536.373C726.351 533.884 725.412 531.491 722.872 528.641Z" stroke="#FFE600" stroke-width="0.201493"/>
</g>
<defs>
<filter id="filter0_diiii_274_2517" x="10.3896" y="145.703" width="321.269" height="220.691" filterUnits="userSpaceOnUse" color-interpolation-filters="sRGB">
<feFlood flood-opacity="0" result="BackgroundImageFix"/>
<feColorMatrix in="SourceAlpha" type="matrix" values="0 0 0 0 0 0 0 0 0 0 0 0 0 0 0 0 0 0 127 0" result="hardAlpha"/>
<feOffset dy="4"/>
<feGaussianBlur stdDeviation="8"/>
<feComposite in2="hardAlpha" operator="out"/>
<feColorMatrix type="matrix" values="0 0 0 0 1 0 0 0 0 0.25098 0 0 0 0 0.505882 0 0 0 0.66 0"/>
<feBlend mode="normal" in2="BackgroundImageFix" result="effect1_dropShadow_274_2517"/>
<feBlend mode="normal" in="SourceGraphic" in2="effect1_dropShadow_274_2517" result="shape"/>
<feColorMatrix in="SourceAlpha" type="matrix" values="0 0 0 0 0 0 0 0 0 0 0 0 0 0 0 0 0 0 127 0" result="hardAlpha"/>
<feOffset dx="4" dy="4"/>
<feGaussianBlur stdDeviation="2.5"/>
<feComposite in2="hardAlpha" operator="arithmetic" k2="-1" k3="1"/>
<feColorMatrix type="matrix" values="0 0 0 0 1 0 0 0 0 0.435294 0 0 0 0 0 0 0 0 1 0"/>
<feBlend mode="normal" in2="shape" result="effect2_innerShadow_274_2517"/>
<feColorMatrix in="SourceAlpha" type="matrix" values="0 0 0 0 0 0 0 0 0 0 0 0 0 0 0 0 0 0 127 0" result="hardAlpha"/>
<feOffset dx="-9"/>
<feGaussianBlur stdDeviation="4.5"/>
<feComposite in2="hardAlpha" operator="arithmetic" k2="-1" k3="1"/>
<feColorMatrix type="matrix" values="0 0 0 0 0 0 0 0 0 0.784314 0 0 0 0 0.32549 0 0 0 0.62 0"/>
<feBlend mode="normal" in2="effect2_innerShadow_274_2517" result="effect3_innerShadow_274_2517"/>
<feColorMatrix in="SourceAlpha" type="matrix" values="0 0 0 0 0 0 0 0 0 0 0 0 0 0 0 0 0 0 127 0" result="hardAlpha"/>
<feOffset dx="35" dy="62"/>
<feGaussianBlur stdDeviation="2"/>
<feComposite in2="hardAlpha" operator="arithmetic" k2="-1" k3="1"/>
<feColorMatrix type="matrix" values="0 0 0 0 1 0 0 0 0 0.25098 0 0 0 0 0.505882 0 0 0 0.28 0"/>
<feBlend mode="color-dodge" in2="effect3_innerShadow_274_2517" result="effect4_innerShadow_274_2517"/>
<feColorMatrix in="SourceAlpha" type="matrix" values="0 0 0 0 0 0 0 0 0 0 0 0 0 0 0 0 0 0 127 0" result="hardAlpha"/>
<feOffset dx="-80" dy="-18"/>
<feGaussianBlur stdDeviation="3.5"/>
<feComposite in2="hardAlpha" operator="arithmetic" k2="-1" k3="1"/>
<feColorMatrix type="matrix" values="0 0 0 0 1 0 0 0 0 0.521667 0 0 0 0 0.416667 0 0 0 0.25 0"/>
<feBlend mode="color-dodge" in2="effect4_innerShadow_274_2517" result="effect5_innerShadow_274_2517"/>
</filter>
<filter id="filter1_diiii_274_2517" x="220.13" y="365.249" width="269.59" height="276.223" filterUnits="userSpaceOnUse" color-interpolation-filters="sRGB">
<feFlood flood-opacity="0" result="BackgroundImageFix"/>
<feColorMatrix in="SourceAlpha" type="matrix" values="0 0 0 0 0 0 0 0 0 0 0 0 0 0 0 0 0 0 127 0" result="hardAlpha"/>
<feOffset dy="4"/>
<feGaussianBlur stdDeviation="8"/>
<feComposite in2="hardAlpha" operator="out"/>
<feColorMatrix type="matrix" values="0 0 0 0 1 0 0 0 0 0.25098 0 0 0 0 0.505882 0 0 0 0.66 0"/>
<feBlend mode="normal" in2="BackgroundImageFix" result="effect1_dropShadow_274_2517"/>
<feBlend mode="normal" in="SourceGraphic" in2="effect1_dropShadow_274_2517" result="shape"/>
<feColorMatrix in="SourceAlpha" type="matrix" values="0 0 0 0 0 0 0 0 0 0 0 0 0 0 0 0 0 0 127 0" result="hardAlpha"/>
<feOffset dx="4" dy="4"/>
<feGaussianBlur stdDeviation="2.5"/>
<feComposite in2="hardAlpha" operator="arithmetic" k2="-1" k3="1"/>
<feColorMatrix type="matrix" values="0 0 0 0 1 0 0 0 0 0.435294 0 0 0 0 0 0 0 0 1 0"/>
<feBlend mode="normal" in2="shape" result="effect2_innerShadow_274_2517"/>
<feColorMatrix in="SourceAlpha" type="matrix" values="0 0 0 0 0 0 0 0 0 0 0 0 0 0 0 0 0 0 127 0" result="hardAlpha"/>
<feOffset dx="-9"/>
<feGaussianBlur stdDeviation="4.5"/>
<feComposite in2="hardAlpha" operator="arithmetic" k2="-1" k3="1"/>
<feColorMatrix type="matrix" values="0 0 0 0 0 0 0 0 0 0.784314 0 0 0 0 0.32549 0 0 0 0.62 0"/>
<feBlend mode="normal" in2="effect2_innerShadow_274_2517" result="effect3_innerShadow_274_2517"/>
<feColorMatrix in="SourceAlpha" type="matrix" values="0 0 0 0 0 0 0 0 0 0 0 0 0 0 0 0 0 0 127 0" result="hardAlpha"/>
<feOffset dx="35" dy="62"/>
<feGaussianBlur stdDeviation="2"/>
<feComposite in2="hardAlpha" operator="arithmetic" k2="-1" k3="1"/>
<feColorMatrix type="matrix" values="0 0 0 0 1 0 0 0 0 0.25098 0 0 0 0 0.505882 0 0 0 0.28 0"/>
<feBlend mode="color-dodge" in2="effect3_innerShadow_274_2517" result="effect4_innerShadow_274_2517"/>
<feColorMatrix in="SourceAlpha" type="matrix" values="0 0 0 0 0 0 0 0 0 0 0 0 0 0 0 0 0 0 127 0" result="hardAlpha"/>
<feOffset dx="-80" dy="-18"/>
<feGaussianBlur stdDeviation="3.5"/>
<feComposite in2="hardAlpha" operator="arithmetic" k2="-1" k3="1"/>
<feColorMatrix type="matrix" values="0 0 0 0 1 0 0 0 0 0.521667 0 0 0 0 0.416667 0 0 0 0.25 0"/>
<feBlend mode="color-dodge" in2="effect4_innerShadow_274_2517" result="effect5_innerShadow_274_2517"/>
</filter>
<filter id="filter2_diiii_274_2517" x="391.166" y="314.448" width="272.973" height="399.289" filterUnits="userSpaceOnUse" color-interpolation-filters="sRGB">
<feFlood flood-opacity="0" result="BackgroundImageFix"/>
<feColorMatrix in="SourceAlpha" type="matrix" values="0 0 0 0 0 0 0 0 0 0 0 0 0 0 0 0 0 0 127 0" result="hardAlpha"/>
<feOffset dy="4"/>
<feGaussianBlur stdDeviation="8"/>
<feComposite in2="hardAlpha" operator="out"/>
<feColorMatrix type="matrix" values="0 0 0 0 1 0 0 0 0 0.25098 0 0 0 0 0.505882 0 0 0 0.66 0"/>
<feBlend mode="normal" in2="BackgroundImageFix" result="effect1_dropShadow_274_2517"/>
<feBlend mode="normal" in="SourceGraphic" in2="effect1_dropShadow_274_2517" result="shape"/>
<feColorMatrix in="SourceAlpha" type="matrix" values="0 0 0 0 0 0 0 0 0 0 0 0 0 0 0 0 0 0 127 0" result="hardAlpha"/>
<feOffset dx="4" dy="4"/>
<feGaussianBlur stdDeviation="2.5"/>
<feComposite in2="hardAlpha" operator="arithmetic" k2="-1" k3="1"/>
<feColorMatrix type="matrix" values="0 0 0 0 1 0 0 0 0 0.435294 0 0 0 0 0 0 0 0 1 0"/>
<feBlend mode="normal" in2="shape" result="effect2_innerShadow_274_2517"/>
<feColorMatrix in="SourceAlpha" type="matrix" values="0 0 0 0 0 0 0 0 0 0 0 0 0 0 0 0 0 0 127 0" result="hardAlpha"/>
<feOffset dx="-9"/>
<feGaussianBlur stdDeviation="4.5"/>
<feComposite in2="hardAlpha" operator="arithmetic" k2="-1" k3="1"/>
<feColorMatrix type="matrix" values="0 0 0 0 0 0 0 0 0 0.784314 0 0 0 0 0.32549 0 0 0 0.62 0"/>
<feBlend mode="normal" in2="effect2_innerShadow_274_2517" result="effect3_innerShadow_274_2517"/>
<feColorMatrix in="SourceAlpha" type="matrix" values="0 0 0 0 0 0 0 0 0 0 0 0 0 0 0 0 0 0 127 0" result="hardAlpha"/>
<feOffset dx="35" dy="62"/>
<feGaussianBlur stdDeviation="2"/>
<feComposite in2="hardAlpha" operator="arithmetic" k2="-1" k3="1"/>
<feColorMatrix type="matrix" values="0 0 0 0 1 0 0 0 0 0.25098 0 0 0 0 0.505882 0 0 0 0.28 0"/>
<feBlend mode="color-dodge" in2="effect3_innerShadow_274_2517" result="effect4_innerShadow_274_2517"/>
<feColorMatrix in="SourceAlpha" type="matrix" values="0 0 0 0 0 0 0 0 0 0 0 0 0 0 0 0 0 0 127 0" result="hardAlpha"/>
<feOffset dx="-80" dy="-18"/>
<feGaussianBlur stdDeviation="3.5"/>
<feComposite in2="hardAlpha" operator="arithmetic" k2="-1" k3="1"/>
<feColorMatrix type="matrix" values="0 0 0 0 1 0 0 0 0 0.521667 0 0 0 0 0.416667 0 0 0 0.25 0"/>
<feBlend mode="color-dodge" in2="effect4_innerShadow_274_2517" result="effect5_innerShadow_274_2517"/>
</filter>
<filter id="filter3_diiii_274_2517" x="64.5195" y="295.701" width="429.69" height="148.195" filterUnits="userSpaceOnUse" color-interpolation-filters="sRGB">
<feFlood flood-opacity="0" result="BackgroundImageFix"/>
<feColorMatrix in="SourceAlpha" type="matrix" values="0 0 0 0 0 0 0 0 0 0 0 0 0 0 0 0 0 0 127 0" result="hardAlpha"/>
<feOffset dy="4"/>
<feGaussianBlur stdDeviation="8"/>
<feComposite in2="hardAlpha" operator="out"/>
<feColorMatrix type="matrix" values="0 0 0 0 1 0 0 0 0 0.25098 0 0 0 0 0.505882 0 0 0 0.66 0"/>
<feBlend mode="normal" in2="BackgroundImageFix" result="effect1_dropShadow_274_2517"/>
<feBlend mode="normal" in="SourceGraphic" in2="effect1_dropShadow_274_2517" result="shape"/>
<feColorMatrix in="SourceAlpha" type="matrix" values="0 0 0 0 0 0 0 0 0 0 0 0 0 0 0 0 0 0 127 0" result="hardAlpha"/>
<feOffset dx="4" dy="4"/>
<feGaussianBlur stdDeviation="2.5"/>
<feComposite in2="hardAlpha" operator="arithmetic" k2="-1" k3="1"/>
<feColorMatrix type="matrix" values="0 0 0 0 1 0 0 0 0 0.435294 0 0 0 0 0 0 0 0 1 0"/>
<feBlend mode="normal" in2="shape" result="effect2_innerShadow_274_2517"/>
<feColorMatrix in="SourceAlpha" type="matrix" values="0 0 0 0 0 0 0 0 0 0 0 0 0 0 0 0 0 0 127 0" result="hardAlpha"/>
<feOffset dx="-9"/>
<feGaussianBlur stdDeviation="4.5"/>
<feComposite in2="hardAlpha" operator="arithmetic" k2="-1" k3="1"/>
<feColorMatrix type="matrix" values="0 0 0 0 0 0 0 0 0 0.784314 0 0 0 0 0.32549 0 0 0 0.62 0"/>
<feBlend mode="normal" in2="effect2_innerShadow_274_2517" result="effect3_innerShadow_274_2517"/>
<feColorMatrix in="SourceAlpha" type="matrix" values="0 0 0 0 0 0 0 0 0 0 0 0 0 0 0 0 0 0 127 0" result="hardAlpha"/>
<feOffset dx="35" dy="62"/>
<feGaussianBlur stdDeviation="2"/>
<feComposite in2="hardAlpha" operator="arithmetic" k2="-1" k3="1"/>
<feColorMatrix type="matrix" values="0 0 0 0 1 0 0 0 0 0.25098 0 0 0 0 0.505882 0 0 0 0.28 0"/>
<feBlend mode="color-dodge" in2="effect3_innerShadow_274_2517" result="effect4_innerShadow_274_2517"/>
<feColorMatrix in="SourceAlpha" type="matrix" values="0 0 0 0 0 0 0 0 0 0 0 0 0 0 0 0 0 0 127 0" result="hardAlpha"/>
<feOffset dx="-80" dy="-18"/>
<feGaussianBlur stdDeviation="3.5"/>
<feComposite in2="hardAlpha" operator="arithmetic" k2="-1" k3="1"/>
<feColorMatrix type="matrix" values="0 0 0 0 1 0 0 0 0 0.521667 0 0 0 0 0.416667 0 0 0 0.25 0"/>
<feBlend mode="color-dodge" in2="effect4_innerShadow_274_2517" result="effect5_innerShadow_274_2517"/>
</filter>
<filter id="filter4_diiii_274_2517" x="577.526" y="472.619" width="266.932" height="258.922" filterUnits="userSpaceOnUse" color-interpolation-filters="sRGB">
<feFlood flood-opacity="0" result="BackgroundImageFix"/>
<feColorMatrix in="SourceAlpha" type="matrix" values="0 0 0 0 0 0 0 0 0 0 0 0 0 0 0 0 0 0 127 0" result="hardAlpha"/>
<feOffset dy="4"/>
<feGaussianBlur stdDeviation="8"/>
<feComposite in2="hardAlpha" operator="out"/>
<feColorMatrix type="matrix" values="0 0 0 0 1 0 0 0 0 0.25098 0 0 0 0 0.505882 0 0 0 0.66 0"/>
<feBlend mode="normal" in2="BackgroundImageFix" result="effect1_dropShadow_274_2517"/>
<feBlend mode="normal" in="SourceGraphic" in2="effect1_dropShadow_274_2517" result="shape"/>
<feColorMatrix in="SourceAlpha" type="matrix" values="0 0 0 0 0 0 0 0 0 0 0 0 0 0 0 0 0 0 127 0" result="hardAlpha"/>
<feOffset dx="4" dy="4"/>
<feGaussianBlur stdDeviation="2.5"/>
<feComposite in2="hardAlpha" operator="arithmetic" k2="-1" k3="1"/>
<feColorMatrix type="matrix" values="0 0 0 0 1 0 0 0 0 0.435294 0 0 0 0 0 0 0 0 1 0"/>
<feBlend mode="normal" in2="shape" result="effect2_innerShadow_274_2517"/>
<feColorMatrix in="SourceAlpha" type="matrix" values="0 0 0 0 0 0 0 0 0 0 0 0 0 0 0 0 0 0 127 0" result="hardAlpha"/>
<feOffset dx="-9"/>
<feGaussianBlur stdDeviation="4.5"/>
<feComposite in2="hardAlpha" operator="arithmetic" k2="-1" k3="1"/>
<feColorMatrix type="matrix" values="0 0 0 0 0 0 0 0 0 0.784314 0 0 0 0 0.32549 0 0 0 0.62 0"/>
<feBlend mode="normal" in2="effect2_innerShadow_274_2517" result="effect3_innerShadow_274_2517"/>
<feColorMatrix in="SourceAlpha" type="matrix" values="0 0 0 0 0 0 0 0 0 0 0 0 0 0 0 0 0 0 127 0" result="hardAlpha"/>
<feOffset dx="35" dy="62"/>
<feGaussianBlur stdDeviation="2"/>
<feComposite in2="hardAlpha" operator="arithmetic" k2="-1" k3="1"/>
<feColorMatrix type="matrix" values="0 0 0 0 1 0 0 0 0 0.25098 0 0 0 0 0.505882 0 0 0 0.28 0"/>
<feBlend mode="color-dodge" in2="effect3_innerShadow_274_2517" result="effect4_innerShadow_274_2517"/>
<feColorMatrix in="SourceAlpha" type="matrix" values="0 0 0 0 0 0 0 0 0 0 0 0 0 0 0 0 0 0 127 0" result="hardAlpha"/>
<feOffset dx="-80" dy="-18"/>
<feGaussianBlur stdDeviation="3.5"/>
<feComposite in2="hardAlpha" operator="arithmetic" k2="-1" k3="1"/>
<feColorMatrix type="matrix" values="0 0 0 0 1 0 0 0 0 0.521667 0 0 0 0 0.416667 0 0 0 0.25 0"/>
<feBlend mode="color-dodge" in2="effect4_innerShadow_274_2517" result="effect5_innerShadow_274_2517"/>
</filter>
<filter id="filter5_diiii_274_2517" x="600.182" y="676.08" width="169.172" height="185.228" filterUnits="userSpaceOnUse" color-interpolation-filters="sRGB">
<feFlood flood-opacity="0" result="BackgroundImageFix"/>
<feColorMatrix in="SourceAlpha" type="matrix" values="0 0 0 0 0 0 0 0 0 0 0 0 0 0 0 0 0 0 127 0" result="hardAlpha"/>
<feOffset dy="4"/>
<feGaussianBlur stdDeviation="8"/>
<feComposite in2="hardAlpha" operator="out"/>
<feColorMatrix type="matrix" values="0 0 0 0 1 0 0 0 0 0.25098 0 0 0 0 0.505882 0 0 0 0.66 0"/>
<feBlend mode="normal" in2="BackgroundImageFix" result="effect1_dropShadow_274_2517"/>
<feBlend mode="normal" in="SourceGraphic" in2="effect1_dropShadow_274_2517" result="shape"/>
<feColorMatrix in="SourceAlpha" type="matrix" values="0 0 0 0 0 0 0 0 0 0 0 0 0 0 0 0 0 0 127 0" result="hardAlpha"/>
<feOffset dx="4" dy="4"/>
<feGaussianBlur stdDeviation="2.5"/>
<feComposite in2="hardAlpha" operator="arithmetic" k2="-1" k3="1"/>
<feColorMatrix type="matrix" values="0 0 0 0 1 0 0 0 0 0.435294 0 0 0 0 0 0 0 0 1 0"/>
<feBlend mode="normal" in2="shape" result="effect2_innerShadow_274_2517"/>
<feColorMatrix in="SourceAlpha" type="matrix" values="0 0 0 0 0 0 0 0 0 0 0 0 0 0 0 0 0 0 127 0" result="hardAlpha"/>
<feOffset dx="-9"/>
<feGaussianBlur stdDeviation="4.5"/>
<feComposite in2="hardAlpha" operator="arithmetic" k2="-1" k3="1"/>
<feColorMatrix type="matrix" values="0 0 0 0 0 0 0 0 0 0.784314 0 0 0 0 0.32549 0 0 0 0.62 0"/>
<feBlend mode="normal" in2="effect2_innerShadow_274_2517" result="effect3_innerShadow_274_2517"/>
<feColorMatrix in="SourceAlpha" type="matrix" values="0 0 0 0 0 0 0 0 0 0 0 0 0 0 0 0 0 0 127 0" result="hardAlpha"/>
<feOffset dx="35" dy="62"/>
<feGaussianBlur stdDeviation="2"/>
<feComposite in2="hardAlpha" operator="arithmetic" k2="-1" k3="1"/>
<feColorMatrix type="matrix" values="0 0 0 0 1 0 0 0 0 0.25098 0 0 0 0 0.505882 0 0 0 0.28 0"/>
<feBlend mode="color-dodge" in2="effect3_innerShadow_274_2517" result="effect4_innerShadow_274_2517"/>
<feColorMatrix in="SourceAlpha" type="matrix" values="0 0 0 0 0 0 0 0 0 0 0 0 0 0 0 0 0 0 127 0" result="hardAlpha"/>
<feOffset dx="-80" dy="-18"/>
<feGaussianBlur stdDeviation="3.5"/>
<feComposite in2="hardAlpha" operator="arithmetic" k2="-1" k3="1"/>
<feColorMatrix type="matrix" values="0 0 0 0 1 0 0 0 0 0.521667 0 0 0 0 0.416667 0 0 0 0.25 0"/>
<feBlend mode="color-dodge" in2="effect4_innerShadow_274_2517" result="effect5_innerShadow_274_2517"/>
</filter>
<filter id="filter6_f_274_2517" x="219.742" y="160.257" width="84.9594" height="48.7195" filterUnits="userSpaceOnUse" color-interpolation-filters="sRGB">
<feFlood flood-opacity="0" result="BackgroundImageFix"/>
<feBlend mode="normal" in="SourceGraphic" in2="BackgroundImageFix" result="shape"/>
<feGaussianBlur stdDeviation="1.905" result="effect1_foregroundBlur_274_2517"/>
</filter>
<filter id="filter7_f_274_2517" x="451.834" y="362.644" width="66.6473" height="80.9568" filterUnits="userSpaceOnUse" color-interpolation-filters="sRGB">
<feFlood flood-opacity="0" result="BackgroundImageFix"/>
<feBlend mode="normal" in="SourceGraphic" in2="BackgroundImageFix" result="shape"/>
<feGaussianBlur stdDeviation="1.905" result="effect1_foregroundBlur_274_2517"/>
</filter>
<filter id="filter8_f_274_2517" x="377.231" y="593.738" width="112.235" height="63.2145" filterUnits="userSpaceOnUse" color-interpolation-filters="sRGB">
<feFlood flood-opacity="0" result="BackgroundImageFix"/>
<feBlend mode="normal" in="SourceGraphic" in2="BackgroundImageFix" result="shape"/>
<feGaussianBlur stdDeviation="1.905" result="effect1_foregroundBlur_274_2517"/>
</filter>
<filter id="filter9_f_274_2517" x="702.273" y="696.54" width="84.9594" height="48.7195" filterUnits="userSpaceOnUse" color-interpolation-filters="sRGB">
<feFlood flood-opacity="0" result="BackgroundImageFix"/>
<feBlend mode="normal" in="SourceGraphic" in2="BackgroundImageFix" result="shape"/>
<feGaussianBlur stdDeviation="1.905" result="effect1_foregroundBlur_274_2517"/>
</filter>
<filter id="filter10_f_274_2517" x="148.714" y="387.275" width="84.9594" height="48.7195" filterUnits="userSpaceOnUse" color-interpolation-filters="sRGB">
<feFlood flood-opacity="0" result="BackgroundImageFix"/>
<feBlend mode="normal" in="SourceGraphic" in2="BackgroundImageFix" result="shape"/>
<feGaussianBlur stdDeviation="1.905" result="effect1_foregroundBlur_274_2517"/>
</filter>
<filter id="filter11_f_274_2517" x="691.961" y="511.573" width="84.9594" height="48.7195" filterUnits="userSpaceOnUse" color-interpolation-filters="sRGB">
<feFlood flood-opacity="0" result="BackgroundImageFix"/>
<feBlend mode="normal" in="SourceGraphic" in2="BackgroundImageFix" result="shape"/>
<feGaussianBlur stdDeviation="1.905" result="effect1_foregroundBlur_274_2517"/>
</filter>
</defs>
</svg>
