<svg width="220" height="25" viewBox="0 0 220 25" fill="none" xmlns="http://www.w3.org/2000/svg">
<path d="M21.9944 1.14062H2.62109V6.83865H12.9345L0 19.7732L3.64674 23.4769L16.8662 10.2575V21.0837H21.9944V1.14062Z" fill="white"/>
<path d="M44.1029 0.570312H34.7012V23.3624H44.1029C49.3451 23.3624 52.8209 21.3681 54.4733 17.8353C55.2711 16.2399 55.556 14.3026 55.556 11.9664C55.556 9.63018 55.2141 7.69285 54.4733 6.0974C52.8779 2.56462 49.3451 0.570312 44.1029 0.570312ZM49.573 16.069C48.6044 18.1202 46.667 19.2599 43.3622 19.2599H39.7154V4.67289H43.3622C46.667 4.67289 48.6613 5.75552 49.573 7.86379C50.0859 8.94642 50.3138 10.2 50.3138 11.9664C50.3138 13.7328 50.0859 14.9863 49.573 16.069Z" fill="white"/>
<path d="M59.8867 23.3624H75.1004V19.3738H64.901V13.7328H75.0435V9.8581H64.901V4.55893H75.1004V0.570312H59.8867V23.3624Z" fill="white"/>
<path d="M90.542 9.85725C87.693 9.11651 85.0149 8.71765 84.3312 7.23616C84.2172 6.89428 84.1602 6.60938 84.1602 6.21051C84.1602 5.81165 84.2172 5.52675 84.3882 5.18487C84.844 4.15922 86.1546 3.58942 87.864 3.58942C89.6873 3.58942 90.8839 4.2162 91.4537 5.35581C91.7386 5.92561 91.8526 6.60938 91.8526 7.4071H96.9808C96.9808 6.09655 96.7529 5.07091 96.354 4.10224C95.1005 1.48115 92.1375 0.0566406 88.0919 0.0566406C83.9323 0.0566406 80.7984 1.59511 79.6588 4.10224C79.2599 4.95695 79.032 5.81165 79.032 6.8373C79.032 7.86294 79.2599 8.66067 79.5448 9.40141C80.5135 11.5097 82.9067 12.5353 85.6987 13.2761C88.6047 14.0738 91.5107 14.5296 92.3084 16.239C92.4794 16.5809 92.5933 16.9228 92.5933 17.4356C92.5933 17.8345 92.4794 18.2334 92.3084 18.6892C91.7956 19.7718 90.3711 20.3416 88.4338 20.3416C86.3255 20.3416 85.015 19.6579 84.3882 18.4043C84.1033 17.8345 84.0463 17.0938 84.0463 16.296H78.5762C78.6332 17.6066 78.8041 18.7462 79.2599 19.7718C80.5135 22.3929 83.5335 24.0454 88.2628 24.0454C92.7643 24.0454 96.1261 22.5639 97.4367 19.8288C97.8355 18.9741 98.0634 18.0054 98.0634 16.8658C98.0634 15.7832 97.8355 14.8715 97.5506 14.0738C96.354 11.6236 93.619 10.655 90.542 9.85725Z" fill="white"/>
<path d="M106.953 0.570312H101.996V23.3624H106.953V0.570312Z" fill="white"/>
<path d="M123.192 14.587H129.061C129.004 15.6126 128.833 16.2964 128.548 17.0371C127.693 18.8605 125.813 19.7722 123.192 19.7722C120.457 19.7722 118.462 18.7465 117.494 16.6952C116.924 15.4417 116.696 14.1311 116.696 11.9659C116.696 9.80061 116.924 8.43308 117.494 7.2365C118.462 5.18521 120.343 4.15956 123.078 4.15956C124.787 4.15956 126.269 4.55842 127.237 5.47011C128.092 6.15387 128.548 7.17952 128.719 8.43308H133.847C133.619 6.03991 132.593 3.98862 130.941 2.50713C129.061 0.854704 126.383 0 123.135 0C117.893 0 114.36 2.10827 112.536 5.86897C111.739 7.5214 111.34 9.51571 111.34 11.9659C111.34 14.416 111.739 16.4103 112.536 18.0628C114.303 21.7665 117.893 23.9317 123.021 23.9317C127.807 23.9317 131.112 22.1084 132.821 18.5186C133.676 16.6952 134.018 14.6439 134.018 12.4787V10.9402H123.192V14.587Z" fill="white"/>
<path d="M153.96 16.2399L143.476 0.570312H138.348V23.3624H143.248V7.74983L153.675 23.3624H158.804V0.570312H153.96V16.2399Z" fill="white"/>
<path d="M186.269 18.3477C185.244 19.2024 183.819 19.7152 182.053 19.7152C179.489 19.7152 177.608 18.6895 176.64 16.6952C176.07 15.4986 175.842 14.0172 175.842 11.9659C175.842 9.91457 176.07 8.49006 176.64 7.29348C177.551 5.35615 179.318 4.21654 182.053 4.21654C183.819 4.21654 185.13 4.67238 186.155 5.52709C187.124 6.38179 187.637 7.5214 187.694 9.05987H192.993C192.879 6.43877 191.91 4.21654 190.03 2.62109C188.093 0.968665 185.414 0 182.224 0C177.038 0 173.449 2.16525 171.796 5.81199C170.998 7.57838 170.6 9.57269 170.6 11.9659C170.6 14.359 170.998 16.3533 171.796 18.1197C173.563 21.8235 177.152 23.9317 182.281 23.9317C185.471 23.9317 188.32 23.02 190.201 21.3106C191.967 19.7722 193.05 17.6069 193.107 14.9858H187.808C187.751 16.4673 187.181 17.5499 186.269 18.3477Z" fill="white"/>
<path d="M218.69 5.75501C216.98 2.16525 213.448 0 208.319 0C203.134 0 199.544 2.16525 197.892 5.75501C197.094 7.5214 196.695 9.62967 196.695 11.9659C196.695 14.3021 197.094 16.4103 197.949 18.1767C199.658 21.8235 203.191 23.9317 208.319 23.9317C213.505 23.9317 216.98 21.8235 218.747 18.1767C219.601 16.4103 220 14.3021 220 11.9659C220 9.62967 219.487 7.5214 218.69 5.75501ZM213.789 16.4673C212.878 18.4616 211.111 19.6012 208.262 19.6012C205.413 19.6012 203.59 18.4046 202.735 16.4673C202.165 15.2137 201.937 13.8462 201.937 11.9089C201.937 9.97155 202.165 8.60402 202.735 7.35046C203.647 5.41313 205.413 4.21654 208.262 4.21654C211.111 4.21654 212.935 5.41313 213.789 7.35046C214.416 8.60402 214.587 9.97155 214.587 11.9089C214.587 13.8462 214.359 15.2707 213.789 16.4673Z" fill="white"/>
</svg>